# xmcd
#
# Track frame offsets: 
#        150
#        67462
#        90622
#        145915
#        201432
#        223862
#        268037
#
# Disc length: 4030 seconds
#
# Revision: 3
# Processed by: cddbd v1.5.2PL0 Copyright (c) Steve Scherf et al.
# Submitted via: ExactAudioCopy v0.99pb5
#
DISCID=780fbc07
DTITLE=Russian State Symphony Orchestra and Valeri Polyansky - Glazunov¡
DTITLE=ESymphonies [CD4]
DYEAR=1999
DGENRE=Classical
TTITLE0=Glazunov¡ESymphony No.4 in E flat major Op.48 - I. Andante-All
TTITLE0=egro moderato
TTITLE1=Glazunov¡ESymphony No.4 in E flat major Op.48 - II. Scherzo, a
TTITLE1=llegro vivace
TTITLE2=Glazunov¡ESymphony No.4 in E flat major Op.48 - III. Andante-A
TTITLE2=llegro
TTITLE3=Glazunov¡ESymphony No.5 in B flat major Op.55 - I. Moderato ma
TTITLE3=estoso-Allegro
TTITLE4=Glazunov¡ESymphony No.5 in B flat major Op.55 - II. Scherzo, m
TTITLE4=oderato
TTITLE5=Glazunov¡ESymphony No.5 in B flat major Op.55 - III. Andante
TTITLE6=Glazunov¡ESymphony No.5 in B flat major Op.55 - IV. Allegro ma
TTITLE6=estoso
EXTD=YEAR: 1997
EXTT0=
EXTT1=
EXTT2=
EXTT3=
EXTT4=
EXTT5=
EXTT6=
PLAYORDER=
